<svg width="96" height="101" viewBox="0 0 96 101" fill="none" xmlns="http://www.w3.org/2000/svg">
<path d="M47.3438 0.236746C46.5188 0.72991 46.5188 0.828543 46.5 7.02268C46.5 12.6448 46.5188 12.9604 46.875 13.3549C47.0625 13.5916 47.4188 13.8283 47.625 13.9073C48.1875 14.1045 49.0313 13.6705 49.2938 13.0985C49.425 12.7631 49.5 10.7116 49.5 6.8846V1.14417L48.9563 0.572097C48.375 -0.0394261 47.9438 -0.118332 47.3438 0.236746Z" fill="#04BF58"/>
<path d="M23.3438 7.79199C22.8188 8.34434 22.7625 8.85723 23.1563 9.64629C23.8125 10.9877 28.575 18.6811 28.9875 19.0756C29.9438 19.983 31.3125 19.3123 31.3125 17.9709C31.3125 17.3396 30.8625 16.4717 28.5938 12.7039C27.0938 10.2184 25.65 7.98926 25.3875 7.73281C24.7688 7.16074 23.925 7.16074 23.3438 7.79199Z" fill="#04BF58"/>
<path d="M71.7563 7.83144C71.325 7.9498 65.0625 17.8131 65.0625 18.3654C65.0625 18.8783 66.0375 19.9238 66.5063 19.9238C66.6938 19.9238 67.05 19.7857 67.2938 19.6082C67.9313 19.1348 73.6875 9.94219 73.6875 9.37012C73.6875 8.64023 73.5 8.28516 72.9188 7.98926C72.375 7.69336 72.3188 7.67363 71.7563 7.83144Z" fill="#04BF58"/>
<path d="M46.8751 21.8373C43.3689 22.0148 40.2376 22.9223 36.8626 24.7174C31.9689 27.341 28.1626 31.4639 25.7626 36.79C22.6126 43.7732 22.6876 52.0781 25.9501 59.1205C27.1689 61.7441 28.4251 63.6182 30.6564 66.084C31.7251 67.2873 32.8501 68.7273 33.1501 69.2994C34.3501 71.4891 35.0439 74.5467 35.1939 78.3145C35.3064 80.7211 35.3439 80.9973 35.7376 81.4115L36.1689 81.8652H48.0564H59.9439L60.3751 81.3721C60.7501 80.9381 60.8251 80.6619 60.8814 78.9654C61.0126 74.9215 61.7814 71.2918 62.9439 69.2008C63.2439 68.6879 64.3876 67.2281 65.5126 65.9459C67.8939 63.2236 69.0939 61.4285 70.3314 58.7062C72.3001 54.3467 73.0876 49.3953 72.5626 44.7793C72.2251 41.8598 71.1939 38.2893 70.0126 35.8432C69.3939 34.6004 67.7064 32.0359 66.6001 30.6945C62.5689 25.8221 56.3814 22.4488 50.6251 21.9951C49.8564 21.9359 48.9189 21.857 48.5626 21.8373C48.2064 21.7978 47.4376 21.7978 46.8751 21.8373ZM51.3189 25.1514C55.7814 25.9207 59.6439 27.9131 62.8876 31.168C65.6251 33.91 67.4251 36.9084 68.5126 40.4986C69.3564 43.2604 69.5814 44.8187 69.5814 47.7186C69.5626 53.8141 67.4251 59.4361 63.5064 63.5787C61.1626 66.0643 60.1689 67.6621 59.1751 70.6211C58.5939 72.2781 57.9376 76.0656 57.9376 77.6437V78.709H48.1126H38.2876L38.1751 78.2553C38.1189 78.0186 38.0626 77.407 38.0626 76.9139C38.0626 75.4936 37.5376 72.6727 36.9189 70.7197C36.0564 68.0172 35.0626 66.3404 32.6814 63.6773C30.3751 61.0932 29.1939 59.2783 28.1251 56.6547C23.5689 45.5092 28.0876 32.5686 38.4001 27.2424C40.6501 26.0785 42.4876 25.5064 45.5626 24.9936C46.7064 24.7963 49.7439 24.8752 51.3189 25.1514Z" fill="#04BF58"/>
<path d="M47.3439 28.6232C46.3876 29.2347 46.2376 30.2408 46.9689 31.0101C47.3626 31.4441 47.6626 31.523 49.0876 31.6216C54.8251 32.0556 59.9439 35.705 62.4376 41.1298C63.4876 43.3984 63.9001 44.8976 64.0501 47.0873C64.1626 48.8429 64.4064 49.6517 64.8939 49.9082C65.4751 50.2435 66.1876 50.1252 66.6564 49.6123C67.0689 49.198 67.1251 48.9613 67.1251 47.8369C67.1251 47.107 66.9564 45.6078 66.7314 44.5228C65.3064 37.0465 59.8126 30.9509 52.8376 29.0967C50.6251 28.5246 47.8876 28.2879 47.3439 28.6232Z" fill="#04BF58"/>
<path d="M9.13131 24.2834C8.04381 24.599 7.68756 25.9996 8.49381 26.7689C9.30006 27.5383 18.0001 32.3516 18.5626 32.3516C19.7063 32.3516 20.3251 30.7734 19.5563 29.8266C19.2376 29.4518 11.0438 24.6582 10.0876 24.2834C9.84381 24.2045 9.41256 24.2045 9.13131 24.2834Z" fill="#04BF58"/>
<path d="M86.0627 24.2045C85.2565 24.5398 76.7252 29.4715 76.4252 29.7871C75.544 30.6945 76.219 32.3516 77.419 32.3516C77.9627 32.3516 86.7752 27.4791 87.5252 26.7689C88.0502 26.2561 88.0877 25.2105 87.5627 24.6582C87.3565 24.4412 87.1127 24.2637 87.019 24.2637C86.9252 24.2637 86.7377 24.2242 86.5877 24.1848C86.4565 24.1256 86.2127 24.1453 86.0627 24.2045Z" fill="#04BF58"/>
<path d="M37.4813 83.8182C35.7563 84.193 34.5 85.7514 34.5 87.5465C34.5 89.2824 35.1938 90.4463 36.6563 91.1564C37.35 91.4918 38.0813 91.5312 47.8313 91.5312C55.1438 91.5312 58.4438 91.4721 58.8938 91.3143C62.0625 90.1898 62.4188 85.7119 59.4563 84.193L58.5938 83.7393L48.375 83.6998C42.75 83.6998 37.8563 83.7393 37.4813 83.8182ZM58.275 87.0336C58.6125 87.3887 58.5375 87.941 58.1438 88.1777C57.9 88.2961 54.375 88.375 48 88.375C41.625 88.375 38.1 88.2961 37.8563 88.1777C37.5188 87.9805 37.3688 87.1914 37.6313 86.935C37.6875 86.8561 42.3188 86.7969 47.9063 86.7969C55.5375 86.7969 58.1063 86.8561 58.275 87.0336Z" fill="#04BF58"/>
<path d="M40.2188 93.2869C39.3751 93.5039 38.9251 93.8195 38.2876 94.5691C36.7126 96.4629 37.2563 99.3627 39.4126 100.487L40.3876 101H47.9438C56.1938 101 56.3063 100.98 57.4313 99.8559C58.2376 99.0471 58.5563 98.258 58.5563 97.0547C58.5563 95.8514 58.2376 95.0426 57.4313 94.2732C56.3251 93.1883 56.5313 93.208 48.3751 93.1686C44.1938 93.1488 40.5376 93.208 40.2188 93.2869ZM55.5188 96.6996C55.7063 97.0547 55.6688 97.173 55.3126 97.4887C54.9188 97.824 54.3938 97.8438 48.1126 97.8438C44.4001 97.8438 41.1563 97.7846 40.9313 97.7254C40.4251 97.5873 40.2001 96.9363 40.5001 96.5615C40.7063 96.3051 41.8876 96.2656 48.0188 96.2656H55.2938L55.5188 96.6996Z" fill="#04BF58"/>
</svg>
