<svg width="399" height="171" viewBox="0 0 399 171" fill="none" xmlns="http://www.w3.org/2000/svg">
<path d="M0 43.3177H11.3672V91.8236H0V43.3177Z" fill="#04BF58"/>
<path d="M57.4032 74.3693C57.4032 74.5002 57.3302 75.4154 57.1846 77.1149H27.5277C28.0622 79.2941 29.325 81.0155 31.3167 82.2793C33.3084 83.5431 35.786 84.1751 38.7493 84.1751C40.7895 84.1751 42.5868 83.9136 44.1414 83.3906C45.7445 82.8242 47.2261 81.9526 48.5863 80.7759L54.6343 86.6592C50.9422 90.4508 45.5501 92.3467 38.4578 92.3467C34.0373 92.3467 30.1266 91.584 26.7262 90.0587C23.3258 88.4898 20.7026 86.3325 18.8566 83.5869C17.0106 80.8411 16.0876 77.725 16.0876 74.2387C16.0876 70.7956 16.9863 67.7015 18.7837 64.9559C20.6297 62.1665 23.1314 60.0094 26.289 58.4839C29.4953 56.915 33.0657 56.1307 37.0005 56.1307C40.838 56.1307 44.3114 56.8714 47.4203 58.3532C50.5294 59.835 52.9582 61.9704 54.707 64.7596C56.5045 67.5054 57.4032 70.7085 57.4032 74.3693ZM37.0732 63.8444C34.4988 63.8444 32.3371 64.4983 30.5881 65.8056C28.8393 67.113 27.7707 68.8998 27.3821 71.1661H46.6917C46.3031 68.9436 45.2344 67.1784 43.4857 65.8711C41.7367 64.5199 39.5994 63.8444 37.0732 63.8444Z" fill="#04BF58"/>
<path d="M87.3412 90.1241C86.224 90.8649 84.8394 91.4314 83.1878 91.8236C81.5847 92.1722 79.8845 92.3466 78.0872 92.3466C73.4237 92.3466 69.8045 91.2789 67.2301 89.1435C64.7039 87.008 63.4408 83.87 63.4408 79.7298V65.2826H57.3931V57.438H63.4408V48.8743H74.808V57.438H84.5723V65.2826H74.808V79.5992C74.808 81.0809 75.221 82.2357 76.047 83.0638C76.9212 83.8482 78.1357 84.2406 79.6903 84.2406C81.4876 84.2406 83.0178 83.8046 84.2808 82.933L87.3412 90.1241Z" fill="#04BF58"/>
<path d="M141.013 56.1307C145.919 56.1307 149.805 57.438 152.671 60.053C155.586 62.6241 157.043 66.5029 157.043 71.6892V91.8236H145.676V73.258C145.676 70.4689 145.02 68.3987 143.709 67.0478C142.446 65.6531 140.624 64.9559 138.244 64.9559C135.572 64.9559 133.459 65.7402 131.904 67.3093C130.35 68.8346 129.573 71.1226 129.573 74.1732V91.8236H118.205V73.258C118.205 67.7231 115.728 64.9559 110.773 64.9559C108.15 64.9559 106.061 65.7402 104.507 67.3093C102.952 68.8346 102.175 71.1226 102.175 74.1732V91.8236H90.8074V56.6535H101.665V60.7066C103.122 59.2249 104.895 58.0917 106.984 57.3074C109.121 56.5228 111.453 56.1307 113.979 56.1307C116.748 56.1307 119.25 56.6318 121.484 57.6341C123.719 58.5928 125.516 60.0094 126.876 61.8833C128.48 60.053 130.496 58.6364 132.924 57.6341C135.402 56.6318 138.098 56.1307 141.013 56.1307Z" fill="#04BF58"/>
<path d="M203.145 74.3693C203.145 74.5002 203.072 75.4154 202.927 77.1149H173.27C173.804 79.2941 175.067 81.0155 177.059 82.2793C179.051 83.5431 181.528 84.1751 184.492 84.1751C186.532 84.1751 188.329 83.9136 189.884 83.3906C191.487 82.8242 192.968 81.9526 194.329 80.7759L200.376 86.6592C196.684 90.4508 191.292 92.3467 184.2 92.3467C179.779 92.3467 175.869 91.584 172.468 90.0587C169.068 88.4898 166.445 86.3325 164.599 83.5869C162.753 80.8411 161.83 77.725 161.83 74.2387C161.83 70.7956 162.728 67.7015 164.526 64.9559C166.372 62.1665 168.874 60.0094 172.031 58.4839C175.237 56.915 178.808 56.1307 182.743 56.1307C186.58 56.1307 190.054 56.8714 193.163 58.3532C196.272 59.835 198.7 61.9704 200.449 64.7596C202.247 67.5054 203.145 70.7085 203.145 74.3693ZM182.815 63.8444C180.241 63.8444 178.079 64.4983 176.33 65.8056C174.582 67.113 173.513 68.8998 173.124 71.1661H192.434C192.045 68.9436 190.977 67.1784 189.228 65.8711C187.479 64.5199 185.342 63.8444 182.815 63.8444Z" fill="#04BF58"/>
<path d="M269.607 56.6535L261.81 91.8236H251.026L251.755 88.3589C248.5 91.0174 244.492 92.3467 239.732 92.3467C236.672 92.3467 233.854 91.7146 231.279 90.4508C228.705 89.187 226.64 87.3783 225.086 85.0249C223.58 82.6279 222.827 79.8169 222.827 76.5921C222.827 72.7133 223.774 69.2268 225.669 66.1326C227.612 62.9946 230.235 60.5541 233.538 58.8108C236.842 57.024 240.485 56.1307 244.468 56.1307C250.492 56.1307 254.742 57.8956 257.22 61.4257L258.239 56.6535H269.607ZM243.229 83.9136C245.464 83.9136 247.456 83.4344 249.204 82.4754C250.953 81.4731 252.314 80.1003 253.285 78.357C254.257 76.6137 254.742 74.6092 254.742 72.3428C254.742 69.9459 253.941 68.0501 252.338 66.6554C250.783 65.2609 248.597 64.5635 245.78 64.5635C243.545 64.5635 241.554 65.0649 239.805 66.0671C238.056 67.0259 236.696 68.377 235.724 70.1201C234.753 71.8634 234.267 73.8682 234.267 76.1345C234.267 78.5315 235.044 80.4273 236.599 81.8217C238.202 83.2164 240.412 83.9136 243.229 83.9136Z" fill="url(#paint0_linear)"/>
<path d="M283.702 92.3467C280.301 92.3467 277.071 92.0197 274.011 91.366C271 90.6688 268.644 89.7753 266.944 88.6859L271.315 81.2987C273.015 82.3012 275.079 83.1074 277.508 83.7175C279.986 84.3277 282.464 84.6327 284.939 84.6327C287.516 84.6327 289.435 84.3496 290.698 83.783C291.961 83.1728 292.591 82.3229 292.591 81.2335C292.591 80.3618 292.032 79.7298 290.917 79.3377C289.798 78.9455 288.002 78.5315 285.524 78.0955C282.705 77.6163 280.375 77.0932 278.527 76.5266C276.731 75.9601 275.152 75.0449 273.793 73.7811C272.481 72.4735 271.826 70.7085 271.826 68.4858C271.826 64.607 273.622 61.5783 277.216 59.3993C280.86 57.2201 285.62 56.1307 291.499 56.1307C294.218 56.1307 296.866 56.392 299.44 56.915C302.015 57.438 304.201 58.1571 306 59.0723L301.918 66.5247C298.711 64.7379 294.851 63.8444 290.332 63.8444C287.854 63.8444 285.961 64.1713 284.65 64.825C283.386 65.4787 282.754 66.3068 282.754 67.3093C282.754 68.2245 283.313 68.8998 284.431 69.3358C285.547 69.7279 287.417 70.1639 290.042 70.6431C292.81 71.1226 295.069 71.6456 296.818 72.212C298.615 72.735 300.17 73.6285 301.481 74.8923C302.793 76.1561 303.448 77.8775 303.448 80.0568C303.448 83.9791 301.603 87.008 297.911 89.1435C294.269 91.2789 289.532 92.3467 283.702 92.3467Z" fill="url(#paint1_linear)"/>
<path d="M334.436 71.9507L347.915 91.8236H334.728L325.401 78.1609L318.478 83.3254L316.582 91.8236H305.215L316 43.3177H327.368L321.32 70.447L340.118 56.6535H354.912L334.436 71.9507Z" fill="url(#paint2_linear)"/>
<path d="M206.068 36.2575V19.9144C206.068 12.6936 212.592 6.84003 220.641 6.84003H377.304C385.353 6.84003 391.879 12.6936 391.879 19.9144V111.435C391.879 118.656 385.353 124.509 377.304 124.509H351.801L360.325 160.194C361.07 163.312 356.904 165.444 354.292 163.28L315.368 131.047H220.641C212.592 131.047 206.068 125.193 206.068 117.972V111.435" stroke="url(#paint3_linear)" stroke-width="4.30079"/>
<defs>
<linearGradient id="paint0_linear" x1="222.827" y1="43.3178" x2="248.084" y2="122.821" gradientUnits="userSpaceOnUse">
<stop stop-color="#485BFF"/>
<stop offset="1" stop-color="#FF59F8"/>
</linearGradient>
<linearGradient id="paint1_linear" x1="222.827" y1="43.3178" x2="248.083" y2="122.821" gradientUnits="userSpaceOnUse">
<stop stop-color="#485BFF"/>
<stop offset="1" stop-color="#FF59F8"/>
</linearGradient>
<linearGradient id="paint2_linear" x1="222.827" y1="43.3177" x2="248.084" y2="122.82" gradientUnits="userSpaceOnUse">
<stop stop-color="#485BFF"/>
<stop offset="1" stop-color="#FF59F8"/>
</linearGradient>
<linearGradient id="paint3_linear" x1="206.068" y1="6.84003" x2="339.508" y2="190.994" gradientUnits="userSpaceOnUse">
<stop stop-color="#04BF58"/>
<stop offset="1" stop-color="#FF59F8"/>
</linearGradient>
</defs>
</svg>
